<?xml version="1.0" encoding="utf-8"?>
<!-- Generator: Adobe Illustrator 27.7.0, SVG Export Plug-In . SVG Version: 6.00 Build 0)  -->
<svg version="1.1" id="Layer_1" xmlns="http://www.w3.org/2000/svg" xmlns:xlink="http://www.w3.org/1999/xlink" x="0px" y="0px"
	 viewBox="0 0 27.8 28.7" style="enable-background:new 0 0 27.8 28.7;" xml:space="preserve">
<style type="text/css">
	.st0{fill:#F7F7F7;}
	.st1{fill:#EDEDED;}
	.st2{fill:#FFFFFF;}
	.st3{fill:#9570C8;}
	.st4{fill:#5959E0;}
	.st5{fill:none;stroke:#000000;stroke-miterlimit:10;}
	.st6{fill:none;stroke:#000000;stroke-miterlimit:10;stroke-dasharray:11.9467,11.9467;}
	.st7{fill:none;stroke:#000000;stroke-miterlimit:10;stroke-dasharray:11.7572,11.7572;}
	.st8{fill:#1F1F1F;}
	.st9{fill:#FDA491;}
	.st10{fill:#FDCD81;}
	.st11{opacity:0.4;fill:#ADADAD;}
	.st12{fill:none;stroke:#ADADAD;stroke-linecap:round;stroke-miterlimit:10;}
	.st13{fill:none;stroke:#ADADAD;stroke-linecap:round;stroke-linejoin:round;stroke-miterlimit:10;}
	.st14{opacity:0.4;}
	.st15{fill:#ADADAD;}
	.st16{clip-path:url(#SVGID_00000132782293661216111480000011759556871459845038_);}
	.st17{fill:#E8E8E8;}
	.st18{opacity:0.57;fill:#EDEDED;}
</style>
<g>
	<path class="st11" d="M16.9,7.6h-6.8V4.8c0-0.5,0.4-1,1-1H16c0.5,0,1,0.4,1,1V7.6z"/>
	<line class="st12" x1="5.9" y1="7.6" x2="21.2" y2="7.6"/>
	<path class="st11" d="M15.4,23.9h-3.8c-2.3,0-4.2-1.9-4.2-4.2V7.6h12.1v12.1C19.6,22.1,17.7,23.9,15.4,23.9z"/>
	<path class="st12" d="M15.4,23.9h-3.8c-2.3,0-4.2-1.9-4.2-4.2V7.6h12.1v12.1C19.6,22.1,17.7,23.9,15.4,23.9z"/>
	<path class="st12" d="M16.9,7.6h-6.8V4.8c0-0.5,0.4-1,1-1H16c0.5,0,1,0.4,1,1V7.6z"/>
</g>
</svg>
