<?xml version="1.0" encoding="utf-8"?>
<!-- Generator: Adobe Illustrator 27.7.0, SVG Export Plug-In . SVG Version: 6.00 Build 0)  -->
<svg version="1.1" id="Layer_1" xmlns="http://www.w3.org/2000/svg" xmlns:xlink="http://www.w3.org/1999/xlink" x="0px" y="0px"
	 viewBox="0 0 27.8 28.7" style="enable-background:new 0 0 27.8 28.7;" xml:space="preserve">
<style type="text/css">
	.st0{fill:#F7F7F7;}
	.st1{fill:#EDEDED;}
	.st2{fill:#FFFFFF;}
	.st3{fill:#9570C8;}
	.st4{fill:#5959E0;}
	.st5{fill:none;stroke:#000000;stroke-miterlimit:10;}
	.st6{fill:none;stroke:#000000;stroke-miterlimit:10;stroke-dasharray:11.9467,11.9467;}
	.st7{fill:none;stroke:#000000;stroke-miterlimit:10;stroke-dasharray:11.7572,11.7572;}
	.st8{fill:#1F1F1F;}
	.st9{fill:#FDA491;}
	.st10{fill:#FDCD81;}
	.st11{opacity:0.4;fill:#ADADAD;}
	.st12{fill:none;stroke:#ADADAD;stroke-linecap:round;stroke-miterlimit:10;}
	.st13{fill:none;stroke:#ADADAD;stroke-linecap:round;stroke-linejoin:round;stroke-miterlimit:10;}
	.st14{opacity:0.4;}
	.st15{fill:#ADADAD;}
	.st16{clip-path:url(#SVGID_00000078027592348823318750000004648037336379141817_);}
	.st17{fill:#E8E8E8;}
	.st18{opacity:0.57;fill:#EDEDED;}
</style>
<g>
	<g>
		<path class="st13" d="M19.8,10.9l-4.5-3.4l1.8-2.4c0.6-0.9,1.9-1,2.7-0.4l1.4,1c0.9,0.6,1,1.9,0.4,2.7L19.8,10.9z"/>
		<polygon class="st13" points="10.4,23.6 6.3,24.3 5.8,20.3 15.3,7.6 19.8,10.9 		"/>
	</g>
	<g class="st14">
		<path class="st15" d="M19.8,10.9l-4.5-3.4l1.8-2.4c0.6-0.9,1.9-1,2.7-0.4l1.4,1c0.9,0.6,1,1.9,0.4,2.7L19.8,10.9z"/>
		<polygon class="st15" points="10.4,23.6 6.3,24.3 5.8,20.3 15.3,7.6 19.8,10.9 		"/>
	</g>
</g>
</svg>
